<?xml version="1.0" encoding="UTF-8"?>
<svg xmlns="http://www.w3.org/2000/svg" id="Layer_1" viewBox="0 0 323.66 100.87">
  <defs>
    <style>.cls-1{fill:#00af66;}.cls-2{fill:#000000;}</style>
  </defs>
  <polygon class="cls-1" points="43.68 28.64 24.81 39.54 24.81 61.33 43.68 72.23 62.55 61.33 62.55 39.54 43.68 28.64"></polygon>
  <g>
    <path class="cls-2" d="M140.12,39.03c2.14,0,3.98,.76,5.5,2.28,1.53,1.53,2.28,3.36,2.28,5.5v21.76c0,2.14-.76,3.98-2.28,5.5s-3.36,2.28-5.5,2.28h-30.26V26.8h5.28v12.23h24.98Zm2.51,29.55v-21.76c0-.68-.25-1.28-.74-1.77-.5-.5-1.08-.74-1.77-.74h-22.4c-.68,0-1.28,.25-1.8,.74s-.77,1.08-.77,1.77v21.76c0,.68,.25,1.28,.77,1.77,.52,.5,1.11,.74,1.8,.74h22.4c.68,0,1.28-.25,1.77-.74,.5-.5,.74-1.08,.74-1.77Z"></path>
    <path class="cls-2" d="M160.47,39.03h20.99v5.28h-20.99c-.68,0-1.28,.25-1.77,.74s-.74,1.08-.74,1.77v29.55h-5.28v-29.55c0-2.14,.76-3.98,2.28-5.5,1.53-1.52,3.36-2.28,5.5-2.28h0Z"></path>
    <path class="cls-2" d="M185.64,26.8h5.28v5.28h-5.28v-5.28Zm0,49.57V39.03h5.28v37.34h-5.28Z"></path>
    <path class="cls-2" d="M228.45,39.03c2.14,0,3.98,.76,5.5,2.28,1.53,1.53,2.29,3.36,2.29,5.5v29.55h-5.28v-29.55c0-.68-.25-1.28-.74-1.77s-1.08-.74-1.77-.74h-22.4c-.68,0-1.28,.25-1.8,.74s-.78,1.08-.78,1.77v29.55h-5.28V39.03h30.26Z"></path>
    <path class="cls-2" d="M240.81,46.83c0-2.14,.76-3.98,2.29-5.5,1.53-1.52,3.38-2.28,5.57-2.28h30.19v52.14h-5.28v-14.81h-24.91c-2.19,0-4.05-.76-5.57-2.28-1.53-1.53-2.29-3.36-2.29-5.5v-21.76h0Zm5.35-.01v21.76c0,.68,.25,1.28,.74,1.77,.5,.5,1.08,.74,1.77,.74h22.4c.68,0,1.28-.25,1.77-.74,.5-.5,.74-1.08,.74-1.77v-21.76c0-.68-.25-1.28-.74-1.77-.5-.5-1.08-.74-1.77-.74h-22.4c-.68,0-1.28,.25-1.77,.74s-.74,1.08-.74,1.77h0Z"></path>
    <path class="cls-2" d="M315.8,39.03c2.19,0,4.05,.76,5.57,2.28,1.53,1.53,2.29,3.36,2.29,5.5v29.55h-30.26c-2.14,0-3.98-.76-5.5-2.28-1.53-1.53-2.29-3.36-2.29-5.5v-13.52h32.7v-8.24c0-.68-.25-1.28-.74-1.77s-1.08-.74-1.77-.74h-30.19v-5.28h30.19Zm2.51,32.06v-10.75h-27.42v8.24c0,.68,.25,1.28,.74,1.77,.5,.5,1.08,.74,1.77,.74h24.91Z"></path>
  </g>
  <polygon class="cls-1" points="0 25.22 0 75.65 43.68 100.87 87.36 75.65 87.36 25.22 43.68 0 24.72 10.95 24.72 26.02 43.68 15.08 74.29 32.76 74.29 68.11 43.68 85.79 13.06 68.11 13.06 17.67 0 25.22"></polygon>
</svg>
